<svg xmlns="http://www.w3.org/2000/svg" width="216" height="40" fill="none" viewBox="0 0 216 40">
  <path fill="#fff" d="M114.184 18.265h5.859l-3.186 14.877h5.481l-.459 2.268h-11.34l3.645-17.145zm16.009 11.016c-.09.396-.162.738-.216 1.026a4.408 4.408 0 00-.081.81c0 .63.216 1.134.648 1.512.45.378 1.107.567 1.971.567.63 0 1.143-.108 1.539-.324.414-.216.747-.504.999-.864.27-.36.477-.774.621-1.242.162-.468.297-.963.405-1.485l2.295-11.016h2.457l-2.349 11.07c-.18.864-.441 1.674-.783 2.43a5.918 5.918 0 01-1.485 1.998c-.63.576-1.449 1.035-2.457 1.377-1.008.324-2.259.486-3.753.486-2.07 0-3.6-.333-4.59-.999-.99-.684-1.485-1.728-1.485-3.132 0-.63.081-1.43.243-2.403.162-.972.369-2.025.621-3.159l1.647-7.668h6.129l-2.376 11.016zm26.241-8.964h-4.347l-3.213 15.093h-5.832l3.213-15.093h-4.293l.486-2.052h14.445l-.459 2.052zm4.365 15.093h-5.832l3.645-17.145h5.859l-3.672 17.145zm14.072-17.415c1.548 0 2.799.198 3.753.594.972.396 1.737 1.008 2.295 1.836.36.558.639 1.188.837 1.89.198.702.297 1.512.297 2.43 0 .792-.072 1.584-.216 2.376a13.907 13.907 0 01-.621 2.295c-.252.72-.567 1.404-.945 2.052a9.084 9.084 0 01-1.215 1.674c-.846.918-1.827 1.566-2.943 1.944-1.098.36-2.457.54-4.077.54-1.566 0-2.826-.162-3.78-.486-.954-.324-1.71-.846-2.268-1.566-.396-.504-.711-1.143-.945-1.917-.216-.774-.324-1.746-.324-2.916 0-1.998.351-3.78 1.053-5.346.72-1.584 1.737-2.835 3.051-3.753a8.508 8.508 0 012.646-1.242c.972-.27 2.106-.405 3.402-.405zm-3.051 15.741c.414 0 .801-.18 1.161-.54.378-.378.72-.873 1.026-1.485.324-.63.612-1.34.864-2.133.27-.792.495-1.61.675-2.457.18-.846.315-1.683.405-2.51a18.28 18.28 0 00.162-2.296c0-.936-.099-1.575-.297-1.917-.18-.36-.45-.54-.81-.54-.414 0-.81.18-1.188.54-.378.36-.738.846-1.08 1.458a13.348 13.348 0 00-.891 2.08 31.194 31.194 0 00-.675 2.402 30.61 30.61 0 00-.432 2.457 20.4 20.4 0 00-.135 2.241c0 1.026.108 1.737.324 2.133.234.378.531.567.891.567zm24.828 1.674h-6.318l-2.997-12.393-2.646 12.393h-2.43l3.645-17.145h6.453l2.835 12.555 2.673-12.555h2.484l-3.699 17.145zm13.623-12.177c.054-.27.081-.639.081-1.107 0-.27-.018-.53-.054-.783a2.491 2.491 0 00-.189-.702.99.99 0 00-.405-.486c-.18-.126-.414-.189-.702-.189-.324 0-.621.072-.891.216a2.624 2.624 0 00-1.215 1.35 2.593 2.593 0 00-.162.918c0 .468.117.828.351 1.08.252.252.576.46.972.621a8 8 0 001.35.405c.504.108 1.026.234 1.566.378.45.126.9.288 1.35.486.45.198.846.468 1.188.81.36.324.648.756.864 1.296.216.522.324 1.18.324 1.971 0 1.134-.225 2.088-.675 2.862a5.35 5.35 0 01-1.863 1.89c-.792.486-1.737.837-2.835 1.053-1.08.216-2.259.324-3.537.324-1.296 0-2.358-.08-3.186-.243-.81-.18-1.449-.369-1.917-.567-.558-.234-.972-.504-1.242-.81l.918-3.699h4.752a14.92 14.92 0 00-.054.675c-.018.27-.027.486-.027.648a3 3 0 00.081.675c.054.234.135.45.243.648.126.198.297.36.513.486.216.126.486.19.81.19.36 0 .675-.082.945-.244.288-.162.522-.36.702-.594.198-.252.342-.522.432-.81a2.67 2.67 0 00.162-.89c0-.397-.099-.73-.297-1a2.128 2.128 0 00-.756-.675 4.679 4.679 0 00-1.134-.486 54.627 54.627 0 00-1.296-.432 20.544 20.544 0 01-1.377-.459 4.7 4.7 0 01-1.296-.756 4.155 4.155 0 01-.999-1.215c-.252-.504-.378-1.143-.378-1.917 0-1.152.288-2.115.864-2.889a6.888 6.888 0 012.214-1.917c.9-.486 1.881-.828 2.943-1.026a15.19 15.19 0 013.024-.324c1.26 0 2.34.153 3.24.46.918.287 1.611.63 2.079 1.025l-.999 3.753h-4.482zM9.433 26.768l6.67-7.479h3.05l-6.048 6.561 4.104 10.611h-5.886L8.947 28.93l-1.593 7.533H1.522l3.645-17.146h5.86L9.432 26.77zm12.16-7.451h11.368l-.432 2.052H27.02l-1.134 5.21h4.617l-.432 2.026h-4.617l-1.242 5.777h5.508l-.405 2.08H17.949l3.645-17.146zm20.438 10.665l-1.377 6.48h-5.859l1.485-6.94-2.646-10.205h6.48l1.836 6.776L46 19.317h2.916l-6.885 10.665z"/>
  <path fill="#fff" fill-rule="evenodd" d="M96.292 26.62a4.242 4.242 0 002.244-1.856 4.258 4.258 0 00-.924-5.4 4.235 4.235 0 00-5.467 0 4.252 4.252 0 00-.924 5.4 4.242 4.242 0 002.245 1.856v4.49a1.417 1.417 0 001.413 1.416 1.412 1.412 0 001.413-1.416v-4.49zm-2.826-4.008a1.418 1.418 0 001.413 1.417 1.412 1.412 0 001.413-1.417 1.418 1.418 0 00-1.413-1.416 1.411 1.411 0 00-1.413 1.416z" clip-rule="evenodd"/>
  <path fill="#31B5E1" fill-rule="evenodd" d="M94.879 11.282c-7.805 0-14.131 6.34-14.131 14.163 0 7.822 6.326 14.162 14.13 14.162 7.805 0 14.131-6.34 14.131-14.162 0-7.822-6.326-14.163-14.13-14.163zM83.573 25.445c0 3.005 1.19 5.886 3.31 8.011a11.291 11.291 0 007.995 3.319c2.998 0 5.873-1.194 7.993-3.319a11.343 11.343 0 003.311-8.011c0-3.005-1.191-5.887-3.311-8.012a11.291 11.291 0 00-7.993-3.318 11.292 11.292 0 00-7.994 3.318 11.343 11.343 0 00-3.311 8.012z" clip-rule="evenodd"/>
  <path fill="#fff" d="M75.793 20.958c-3.135-2.745-8.443-5.006-11.955-6.503-.595-.252-1.132-.48-1.588-.682-1.325-.588-3.145-2.232-2.387-4.15.511-1.297 1.832-1.962 3.932-1.983.673-.006 1.413.059 2.203.19 2.743.456 4.83 1.403 6.012 1.94a.634.634 0 00.47.021.6.6 0 00.34-.309l2.64-5.78a.548.548 0 00-.226-.7C73.322 1.829 68.562.105 63.292.158c-.762.007-1.52.051-2.257.131-4.197.45-8.395 1.55-10.678 6.526-1.425 3.097-1.387 6.568.091 9.056 1.58 2.717 4.14 3.914 7.378 5.425l.417.196c2.338 1.075 5.139 2.27 6.982 3.056 2.724 1.21 3.749 3.397 3.139 4.728-.984 2.146-3.199 2.637-7.048 1.646-3.397-.836-6.549-3.26-7.429-3.983a.628.628 0 00-.903.122l-4.119 6.1a.546.546 0 00.092.72c2.185 1.953 3.962 3.085 7.034 4.477 2.067.937 5.085 1.481 8.074 1.451 3.123-.03 10.745-.791 14.03-7.148 2.096-4.068 1.258-8.324-2.302-11.702z"/>
</svg>
