<svg xmlns="http://www.w3.org/2000/svg" width="212" height="39" fill="none" viewBox="0 0 212 39">
  <path fill="#2A3E54" d="M72.17 20.434c-3.107-2.676-8.366-4.881-11.845-6.34-.589-.246-1.121-.468-1.573-.666-1.313-.572-3.116-2.176-2.365-4.046.506-1.264 1.815-1.912 3.896-1.933.667-.006 1.4.057 2.182.184 2.718.446 4.785 1.369 5.957 1.893a.638.638 0 00.465.02.592.592 0 00.336-.301L71.84 3.61a.53.53 0 00-.224-.682C69.722 1.783 65.006.1 59.784.153c-.755.007-1.505.05-2.236.128-4.158.439-8.317 1.512-10.58 6.363-1.41 3.019-1.373 6.403.091 8.83 1.566 2.648 4.101 3.815 7.31 5.288l.413.19c2.317 1.05 5.091 2.214 6.917 2.98 2.699 1.18 3.715 3.313 3.11 4.61-.974 2.092-3.169 2.571-6.982 1.605-3.366-.815-6.488-3.179-7.36-3.883a.63.63 0 00-.895.119l-4.08 5.947a.526.526 0 00.09.701c2.165 1.905 3.925 3.01 6.969 4.366 2.048.913 5.037 1.444 7.999 1.415 3.094-.03 10.645-.772 13.9-6.97 2.077-3.965 1.247-8.115-2.28-11.408zM109.674 17.656h5.859l-3.186 14.877h5.481l-.459 2.268h-11.34l3.645-17.145zm16.01 11.016c-.09.396-.162.738-.216 1.026a4.408 4.408 0 00-.081.81c0 .63.216 1.134.648 1.512.45.378 1.107.567 1.971.567.63 0 1.143-.108 1.539-.324.414-.216.747-.504.999-.864.27-.36.477-.774.621-1.242.162-.468.297-.963.405-1.485l2.295-11.016h2.457l-2.349 11.07c-.18.864-.441 1.674-.783 2.43a5.918 5.918 0 01-1.485 1.998c-.63.576-1.449 1.035-2.457 1.377-1.008.324-2.259.486-3.753.486-2.07 0-3.6-.333-4.59-1-.99-.683-1.485-1.727-1.485-3.131 0-.63.081-1.431.243-2.403.162-.972.369-2.025.621-3.16l1.647-7.667h6.129l-2.376 11.016zm26.24-8.964h-4.347L144.364 34.8h-5.832l3.213-15.093h-4.293l.486-2.052h14.445l-.459 2.052zM156.29 34.8h-5.832l3.645-17.145h5.859L156.29 34.8zm14.072-17.415c1.548 0 2.799.198 3.753.594.972.396 1.737 1.008 2.295 1.836.36.558.639 1.188.837 1.89.198.702.297 1.512.297 2.43 0 .792-.072 1.584-.216 2.376a13.907 13.907 0 01-.621 2.295c-.252.72-.567 1.404-.945 2.052a9.084 9.084 0 01-1.215 1.674c-.846.918-1.827 1.566-2.943 1.944-1.098.36-2.457.54-4.077.54-1.566 0-2.826-.162-3.78-.486-.954-.324-1.71-.846-2.268-1.566-.396-.504-.711-1.143-.945-1.917-.216-.774-.324-1.746-.324-2.916 0-1.998.351-3.78 1.053-5.346.72-1.584 1.737-2.835 3.051-3.753a8.508 8.508 0 012.646-1.242c.972-.27 2.106-.405 3.402-.405zm-3.051 15.74c.414 0 .801-.18 1.161-.54.378-.377.72-.872 1.026-1.484.324-.63.612-1.341.864-2.133.27-.792.495-1.611.675-2.457.18-.846.315-1.683.405-2.511a18.28 18.28 0 00.162-2.295c0-.936-.099-1.575-.297-1.917-.18-.36-.45-.54-.81-.54-.414 0-.81.18-1.188.54-.378.36-.738.846-1.08 1.458a13.348 13.348 0 00-.891 2.079 31.194 31.194 0 00-.675 2.403 30.61 30.61 0 00-.432 2.457 20.4 20.4 0 00-.135 2.24c0 1.027.108 1.738.324 2.134.234.378.531.567.891.567zm24.828 1.675h-6.318l-2.997-12.393-2.646 12.393h-2.43l3.645-17.145h6.453l2.835 12.555 2.673-12.555h2.484L192.139 34.8zm13.623-12.177c.054-.27.081-.64.081-1.107 0-.27-.018-.531-.054-.783a2.491 2.491 0 00-.189-.702.99.99 0 00-.405-.486c-.18-.126-.414-.19-.702-.19-.324 0-.621.073-.891.217a2.624 2.624 0 00-1.215 1.35 2.593 2.593 0 00-.162.918c0 .468.117.828.351 1.08.252.252.576.459.972.62a8 8 0 001.35.406c.504.108 1.026.234 1.566.378.45.126.9.288 1.35.486.45.198.846.468 1.188.81.36.324.648.756.864 1.296.216.522.324 1.179.324 1.97 0 1.135-.225 2.089-.675 2.863a5.35 5.35 0 01-1.863 1.89c-.792.486-1.737.837-2.835 1.053-1.08.216-2.259.324-3.537.324-1.296 0-2.358-.081-3.186-.243-.81-.18-1.449-.37-1.917-.567-.558-.234-.972-.504-1.242-.81l.918-3.7h4.752a14.92 14.92 0 00-.054.676c-.018.27-.027.486-.027.648a3 3 0 00.081.675c.054.234.135.45.243.648.126.198.297.36.513.486.216.126.486.189.81.189.36 0 .675-.081.945-.243.288-.162.522-.36.702-.594.198-.252.342-.522.432-.81a2.67 2.67 0 00.162-.891c0-.396-.099-.73-.297-1a2.128 2.128 0 00-.756-.674 4.679 4.679 0 00-1.134-.486 54.627 54.627 0 00-1.296-.432 20.544 20.544 0 01-1.377-.46 4.7 4.7 0 01-1.296-.755 4.155 4.155 0 01-.999-1.215c-.252-.504-.378-1.143-.378-1.917 0-1.152.288-2.115.864-2.89a6.888 6.888 0 012.214-1.916c.9-.486 1.881-.828 2.943-1.026a15.19 15.19 0 013.024-.324c1.26 0 2.34.153 3.24.459.918.288 1.611.63 2.079 1.026l-.999 3.753h-4.482z"/>
  <path fill="#2A3E54" d="M8.209 26.108l6.669-7.48h3.05l-6.047 6.562 4.104 10.61h-5.886l-2.376-7.532L6.13 35.8H.298l3.645-17.145h5.859l-1.593 7.452zm12.16-7.452h11.368l-.432 2.052h-5.508l-1.134 5.21h4.617l-.432 2.026H24.23l-1.242 5.778h5.508l-.405 2.079H16.725l3.645-17.145zM40.808 29.32L39.43 35.8h-5.86l1.486-6.94-2.646-10.205h6.48l1.836 6.777 4.05-6.777h2.916L40.807 29.32z"/>
  <path fill="#31B5E1" fill-rule="evenodd" d="M92.4 24.62a4.182 4.182 0 002.224-1.794 4.029 4.029 0 00.517-2.772 4.087 4.087 0 00-1.433-2.445A4.26 4.26 0 0091 16.642a4.26 4.26 0 00-2.708.967 4.087 4.087 0 00-1.433 2.445 4.029 4.029 0 00.517 2.773A4.181 4.181 0 0089.6 24.62v4.338c0 .363.148.71.41.967.263.257.619.401.99.401s.727-.144.99-.4c.263-.257.41-.605.41-.968V24.62zm-2.8-3.872c0 .363.148.71.41.967.263.257.619.401.99.401s.727-.144.99-.4c.263-.257.41-.605.41-.968s-.147-.711-.41-.968a1.417 1.417 0 00-.99-.4c-.371 0-.727.143-.99.4-.262.257-.41.605-.41.968z" clip-rule="evenodd"/>
  <path fill="#2A3E54" fill-rule="evenodd" d="M91 9.8c-7.732 0-14 6.127-14 13.684 0 7.558 6.268 13.684 14 13.684s14-6.126 14-13.684c0-7.557-6.268-13.683-14-13.683zM79.8 23.485c0 2.904 1.18 5.688 3.28 7.74A11.333 11.333 0 0091 34.432c2.97 0 5.82-1.153 7.92-3.206a10.823 10.823 0 003.28-7.74c0-2.904-1.18-5.688-3.28-7.741A11.333 11.333 0 0091 12.537c-2.97 0-5.82 1.154-7.92 3.207a10.823 10.823 0 00-3.28 7.74z" clip-rule="evenodd"/>
</svg>
